<svg xmlns="http://www.w3.org/2000/svg" viewBox="0 0 512 512" role="img" aria-label="Ví Nhỏ">
  <defs>
    <linearGradient id="bg" x1="64" y1="32" x2="448" y2="480" gradientUnits="userSpaceOnUse">
      <stop stop-color="#1c5f50"/>
      <stop offset="1" stop-color="#0d352e"/>
    </linearGradient>
  </defs>
  <rect width="512" height="512" rx="128" fill="url(#bg)"/>
  <path d="M114 167c0-24 20-44 44-44h190c28 0 50 22 50 50v21H158c-24 0-44-12-44-27Z" fill="#d7efca"/>
  <path d="M108 180c0-20 16-36 36-36h224c26 0 47 21 47 47v154c0 26-21 47-47 47H155c-26 0-47-21-47-47V180Z" fill="#fffdf7"/>
  <path d="M327 224h88v103h-88c-28 0-51-23-51-51v-1c0-28 23-51 51-51Z" fill="#f2b84b"/>
  <circle cx="329" cy="276" r="14" fill="#113f36"/>
  <path d="M195 317c40-3 71-36 73-77-40 3-71 36-73 77Z" fill="#67a35b"/>
  <path d="M194 317c-1-32-22-59-53-68 1 32 22 59 53 68Z" fill="#9ac77f"/>
</svg>
